<svg width="10" height="11" viewBox="0 0 10 11" fill="none" xmlns="http://www.w3.org/2000/svg">
<path d="M1.66663 9.45833V6.98958C1.66663 6.85069 1.69968 6.71875 1.76579 6.59375C1.8319 6.46875 1.92385 6.36806 2.04163 6.29167L2.49996 5.98958C2.54857 6.57292 2.62496 7.06944 2.72913 7.47917C2.83329 7.88889 2.99649 8.34375 3.21871 8.84375L1.66663 9.45833ZM3.84371 8.625C3.60065 8.16667 3.4201 7.68056 3.30204 7.16667C3.18399 6.65278 3.12496 6.12153 3.12496 5.57292C3.12496 4.70486 3.2969 3.88722 3.64079 3.12C3.98468 2.35278 4.43774 1.77111 4.99996 1.375C5.56246 1.77083 6.01565 2.3525 6.35954 3.12C6.70343 3.8875 6.87524 4.70514 6.87496 5.57292C6.87496 6.11458 6.81593 6.64069 6.69788 7.15125C6.57982 7.6618 6.39926 8.15306 6.15621 8.625H3.84371ZM4.99996 5.70833C5.22913 5.70833 5.42538 5.62681 5.58871 5.46375C5.75204 5.30069 5.83357 5.10444 5.83329 4.875C5.83329 4.64583 5.75177 4.44972 5.58871 4.28667C5.42565 4.12361 5.2294 4.04194 4.99996 4.04167C4.77079 4.04167 4.57468 4.12333 4.41163 4.28667C4.24857 4.45 4.1669 4.64611 4.16663 4.875C4.16663 5.10417 4.24829 5.30042 4.41163 5.46375C4.57496 5.62708 4.77107 5.70861 4.99996 5.70833ZM8.33329 9.45833L6.78121 8.84375C7.00343 8.34375 7.16663 7.88889 7.27079 7.47917C7.37496 7.06944 7.45135 6.57292 7.49996 5.98958L7.95829 6.29167C8.07635 6.36806 8.16843 6.46875 8.23454 6.59375C8.30065 6.71875 8.33357 6.85069 8.33329 6.98958V9.45833Z" fill="#0078CC"/>
</svg>
