<svg width="11" height="11" viewBox="0 0 11 11" fill="none" xmlns="http://www.w3.org/2000/svg">
<path d="M2.82414 3.0151C1.54024 4.46333 1.69766 6.69848 3.17586 8.00895C4.65406 9.31941 6.89196 9.20779 8.17586 7.75956C9.45976 6.31133 9.30234 4.07618 7.82414 2.76571C6.34594 1.45525 4.10804 1.56687 2.82414 3.0151ZM7.65795 7.30042C6.62427 8.4664 4.81581 8.5566 3.62569 7.50154C2.43558 6.44647 2.30837 4.64023 3.34205 3.47424C4.37573 2.30826 6.18419 2.21806 7.37431 3.27312C8.56442 4.32819 8.69163 6.13443 7.65795 7.30042ZM4.57764 6.07997C4.74352 5.89286 4.72324 5.60491 4.53226 5.4356C4.34128 5.26629 4.05297 5.28067 3.8871 5.46778C3.72122 5.65489 3.7415 5.94284 3.93248 6.11215C4.12346 6.28145 4.41177 6.26707 4.57764 6.07997ZM6.07709 4.3886C6.24296 4.20149 6.22268 3.91354 6.0317 3.74423C5.84072 3.57493 5.55242 3.5893 5.38654 3.77641C5.22067 3.96352 5.24095 4.25147 5.43192 4.42078C5.6229 4.59009 5.91121 4.57571 6.07709 4.3886ZM6.89791 5.04077C6.97273 5.49978 6.84039 5.96205 6.53582 6.30561C6.23124 6.64917 5.78924 6.83692 5.32349 6.8167C5.13378 6.80899 4.97731 6.95723 4.97329 7.14435C4.96941 7.33348 5.12015 7.49166 5.30893 7.50043C5.97851 7.52766 6.61406 7.25852 7.05265 6.7638C7.49123 6.26907 7.68225 5.60584 7.57496 4.94435C7.54457 4.75693 7.36852 4.6273 7.18122 4.65381C6.99593 4.68023 6.86751 4.85335 6.89791 5.04077Z" fill="#B63637"/>
</svg>
